<svg width="1020" height="985" viewBox="0 0 1020 985" version="1.1" xmlns="http://www.w3.org/2000/svg" xmlns:xlink="http://www.w3.org/1999/xlink">
<g id="Canvas" fill="none">
<g id="Background">
<mask id="mask0" mask-type="alpha" maskUnits="userSpaceOnUse" x="-2013" y="-432" width="3033" height="1514">
<rect id="Rectangle" width="3033" height="1514" transform="translate(-2013 -432)" fill="#293032"/>
</mask>
<g mask="url(#mask0)">
<g id="cloud-repair-service-svgrepo-com">
<g id="Group">
<path id="Vector" d="M 935.065 348.309C 944.701 321.052 950.219 291.853 950.219 261.286C 950.219 116.99 833.292 -5.73065e-07 689.074 -5.73065e-07C 590.939 -5.73065e-07 505.525 54.2425 460.916 134.317C 426.935 112.943 386.816 100.384 343.715 100.384C 221.748 100.384 122.893 199.296 122.893 321.308C 122.893 329.765 123.476 338.083 124.403 346.301L 122.893 346.301C 55.0345 346.299 0 401.345 0 469.258C 0 537.169 55.0345 592.218 122.893 592.218L 167.504 592.218C 162.187 583.677 159.241 573.884 159.241 563.589C 159.241 549.094 164.863 535.439 175.15 525.113L 206.25 494.03L 224.631 475.643C 234.883 465.403 248.528 459.774 263.033 459.774C 277.537 459.774 291.218 465.421 301.505 475.709L 301.607 475.815L 301.607 475.661C 301.607 445.66 325.987 421.246 355.992 421.246L 425.838 421.246C 455.805 421.246 480.188 445.657 480.188 475.661L 480.188 475.846L 480.325 475.709C 504.754 451.267 539.879 458.279 557.269 475.678L 580.071 498.493L 606.644 525.08C 616.932 535.355 622.588 549.026 622.588 563.573C 622.588 573.901 619.608 583.71 614.291 592.22L 688.047 592.22C 738.897 512.574 890.011 476.228 932.082 577.452C 933.795 581.57 934.14 585.926 934.688 590.25C 993.184 580.814 1038 530.466 1038 469.263C 1038 408.194 993.39 357.897 935.065 348.309Z" fill="#222729"/>
<path id="Vector_2" d="M 166.954 338.911C 133.211 316.662 110.855 278.532 110.855 235.183C 110.855 166.653 166.574 110.904 235.049 110.904C 303.559 110.904 359.277 166.653 359.277 235.183C 359.277 243.586 358.385 251.802 356.809 259.747L 470.132 212.47L 470.132 200.224C 470.132 189.569 461.493 180.922 450.863 180.922L 411.26 180.922C 407.829 169.757 403.303 159.054 397.922 148.898L 425.97 120.834C 429.605 117.216 431.627 112.309 431.627 107.197C 431.627 102.085 429.605 97.1805 425.97 93.5419L 376.595 44.1398C 372.819 40.3665 367.884 38.4931 362.947 38.4931C 358.01 38.4931 353.106 40.3665 349.335 44.1398L 321.251 72.2209C 311.101 66.8349 300.436 62.3237 289.226 58.9105L 289.226 19.2841C 289.226 8.62912 280.62 8.89936e-06 269.988 8.89936e-06L 200.142 8.89936e-06C 189.511 8.89936e-06 180.869 8.62912 180.869 19.2841L 180.869 58.9083C 169.692 62.3237 158.994 66.8349 148.844 72.2188L 120.831 44.1729C 117.06 40.3952 112.12 38.5262 107.183 38.5262C 102.246 38.5262 97.3089 40.3952 93.5354 44.1553L 44.1247 93.5751C 40.5257 97.1938 38.5032 102.1 38.5032 107.212C 38.5032 112.342 40.5257 117.247 44.1247 120.868L 72.173 148.913C 66.7899 159.069 62.2988 169.757 58.8698 180.92L 19.2692 180.92C 8.64212 180.92 1.61719e-06 189.567 1.61719e-06 200.222L 1.61719e-06 270.123C 1.61719e-06 280.758 8.64212 289.403 19.2692 289.403L 58.8389 289.403C 62.301 300.57 66.7921 311.276 72.1752 321.432L 44.1269 349.495C 36.6175 357.007 36.6175 369.239 44.1269 376.768L 60.7245 393.357C 70.2896 382.996 81.981 374.351 95.8362 368.567L 166.954 338.911Z" transform="translate(155.845 456.374)" fill="#222729"/>
<path id="Vector_3" d="M 89.0819 -3.1822e-05C 39.9472 -3.1822e-05 5.39063e-06 39.9865 5.39063e-06 89.1479C 5.39063e-06 129.872 27.5691 163.938 64.9087 174.555L 166.68 132.117C 173.776 119.323 178.199 104.809 178.199 89.1479C 178.201 39.9865 138.219 -3.1822e-05 89.0819 -3.1822e-05Z" transform="translate(301.812 602.409)" fill="#222729"/>
<path id="Vector_4" d="M 714.702 157.424C 712.887 157.424 711.033 157.782 709.248 158.52L 636.42 188.866C 633.267 190.187 630.008 190.805 626.784 190.805C 616.976 190.805 607.652 184.989 603.637 175.33L 581.418 122.035C 578.884 115.876 578.813 108.981 581.383 102.822C 583.887 96.6448 588.758 91.7559 594.894 89.2021L 667.723 58.8388C 674.925 55.8387 678.283 47.6205 675.3 40.4693C 662.821 10.4684 630.588 -5.40032 600.003 1.66691L 563.862 9.91831C 529.471 17.7742 500.601 40.9487 485.443 72.7855L 456.576 133.477L 40.8174 306.85C 7.00845 320.952 -8.96864 359.767 5.12283 393.63C 19.0796 427.099 57.6888 443.582 91.8731 429.361L 507.662 256.003L 570.994 278.204C 583.41 282.56 596.3 284.703 609.127 284.703C 630.727 284.703 652.161 278.632 670.847 266.78L 702.187 246.899C 729.207 229.745 739.94 195.644 727.63 166.087C 725.4 160.685 720.189 157.424 714.702 157.424Z" transform="translate(224.373 550.514)" fill="#222729"/>
</g>
</g>
</g>
</g>
</g>
</svg>
