<svg width="1067" height="1100" viewBox="0 0 1067 1100" version="1.1" xmlns="http://www.w3.org/2000/svg" xmlns:xlink="http://www.w3.org/1999/xlink">
<g id="Canvas" fill="none">
<g id="Mask Group">
<mask id="mask0" mask-type="alpha" maskUnits="userSpaceOnUse" x="-1966" y="-334" width="3033" height="1514">
<rect id="Rectangle" width="3033" height="1514" transform="translate(-1966 -334)" fill="#293032"/>
</mask>
<g mask="url(#mask0)">
<g id="two-gears-svgrepo-com">
<g id="Group">
<path id="Vector" d="M 424.661 669.66C 305.116 661.476 210.312 561.901 210.312 440.36C 210.312 313.471 313.561 210.25 440.484 210.25C 542.374 210.25 628.896 276.851 659.101 368.731C 660.894 368.655 662.612 368.218 664.426 368.218C 678.234 368.218 691.668 370.742 704.176 375.596C 715.677 349.679 737.041 329.248 763.353 318.5C 758.206 304.873 752.444 291.562 745.679 278.819L 798.251 226.262C 805.019 219.498 808.825 210.306 808.825 200.723C 808.825 191.14 805.019 181.949 798.251 175.185L 705.672 82.6728C 691.569 68.5714 668.686 68.5714 654.578 82.6728L 602.009 135.23C 582.992 125.152 562.97 116.712 542.038 110.284L 542.038 36.1093C 542.038 16.1714 525.862 8.91373e-07 505.919 8.91373e-07L 375.048 8.91373e-07C 355.107 8.91373e-07 338.931 16.1714 338.931 36.1093L 338.931 110.281C 318 116.71 297.977 125.152 278.941 135.228L 226.407 82.7109C 212.301 68.6095 189.421 68.6095 175.315 82.7109L 82.7518 175.223C 75.9888 181.987 72.1779 191.179 72.1779 200.761C 72.1779 210.347 75.9888 219.536 82.7518 226.3L 135.286 278.822C 125.205 297.853 116.763 317.85 110.335 338.776L 36.1169 338.776C 16.1759 338.773 0 354.944 0 374.885L 0 505.754C 0 525.695 16.1759 541.866 36.1169 541.866L 110.312 541.866C 116.74 562.787 125.185 582.804 135.263 601.835L 82.7137 654.375C 68.6059 668.473 68.6059 691.35 82.7137 705.451L 175.272 797.989C 189.375 812.088 212.258 812.088 226.363 797.989L 278.895 745.47C 297.932 755.566 317.974 764.023 338.926 770.454L 338.926 844.626C 338.926 864.567 355.102 880.738 375.043 880.738L 459.65 880.738C 436.589 860.584 421.914 831.058 421.914 798.106C 421.922 777.063 420.261 689.971 424.661 669.66Z" fill="#222829"/>
<path id="Vector_2" d="M 315.845 129.49C 320.286 125.05 325.177 121.284 330.187 117.718C 308.152 49.6773 244.889 -6.82094e-06 169.569 -6.82094e-06C 76.065 -6.82094e-06 8.21844e-06 76.0462 8.21844e-06 169.526C 8.21844e-06 267.58 84.9825 350.903 191.664 336.822C 199.199 330.689 207.464 325.421 216.463 321.438C 184.507 238.763 251.713 193.619 315.845 129.49Z" transform="translate(270.91 270.837)" fill="#222829"/>
<path id="Vector_3" d="M 140.713 3.10043e-06C 63.1258 3.10043e-06 6.20259e-07 63.1081 6.20259e-07 140.673C 6.20259e-07 218.238 63.1258 281.346 140.713 281.346C 218.317 281.346 281.446 218.238 281.446 140.673C 281.446 63.1081 218.317 3.10043e-06 140.713 3.10043e-06Z" transform="translate(716.619 604.776)" fill="#222829"/>
<path id="Vector_4" d="M 709.262 301.798C 709.262 285.743 696.244 272.729 680.185 272.729L 620.453 272.729C 615.265 255.887 608.459 239.754 600.329 224.451L 642.645 182.147C 648.11 176.681 651.166 169.287 651.166 161.576C 651.166 153.865 648.113 146.472 642.645 141.006L 568.138 66.5192C 562.454 60.8604 555.021 58.0208 547.562 58.0208C 540.125 58.0208 532.686 60.8604 527.006 66.5192L 484.654 108.859C 469.342 100.736 453.227 93.9523 436.378 88.7862L 436.378 29.0714C 436.378 13.0168 423.36 2.48034e-06 407.301 2.48034e-06L 301.941 2.48034e-06C 285.882 2.48034e-06 272.864 13.0168 272.864 29.0714L 272.864 88.7862C 256.017 93.9523 239.882 100.736 224.552 108.859L 182.256 66.5802C 176.576 60.8959 169.137 58.0589 161.68 58.0589C 154.241 58.0589 146.805 60.8985 141.124 66.5598L 66.6166 141.047C 61.1493 146.512 58.093 153.906 58.093 161.617C 58.093 169.328 61.1518 176.722 66.6166 182.187L 108.912 224.471C 100.782 239.774 93.9965 255.887 88.8086 272.729L 29.077 272.729C 13.0179 272.729 1.79875e-05 285.743 1.79875e-05 301.798L 1.79875e-05 407.169C 1.79875e-05 423.224 13.0179 436.238 29.077 436.238L 88.7883 436.238C 93.9762 453.08 100.762 469.213 108.892 484.516L 66.5759 526.82C 55.2322 538.16 55.2322 556.579 66.5759 567.94L 141.084 642.427C 146.548 647.893 153.947 650.946 161.66 650.946C 169.373 650.946 176.769 647.893 182.236 642.427L 224.511 600.164C 239.859 608.289 255.997 615.093 272.864 620.262L 272.864 679.997C 272.864 696.046 285.882 709.066 301.941 709.066L 407.301 709.066C 423.36 709.066 436.378 696.049 436.378 679.997L 436.378 620.262C 453.245 615.093 469.383 608.291 484.71 600.164L 527.046 642.468C 532.727 648.147 540.166 650.966 547.602 650.966C 555.056 650.966 562.495 648.147 568.173 642.468L 642.663 567.999C 648.125 562.538 651.184 555.142 651.184 547.428C 651.184 539.717 648.125 532.324 642.663 526.863L 600.347 484.559C 608.474 469.236 615.283 453.103 620.451 436.24L 680.182 436.24C 687.896 436.24 695.312 433.182 700.759 427.722C 706.221 422.276 709.28 414.862 709.28 407.151L 709.262 301.798ZM 354.612 535.577C 254.754 535.577 173.499 454.347 173.499 354.515C 173.499 254.685 254.752 173.453 354.612 173.453C 454.49 173.453 535.745 254.683 535.745 354.515C 535.745 454.345 454.49 535.577 354.612 535.577Z" transform="translate(502.72 390.934)" fill="#222829"/>
</g>
</g>
</g>
</g>
</g>
</svg>
