<svg width="980" height="136" viewBox="0 0 980 136" version="1.1" xmlns="http://www.w3.org/2000/svg" xmlns:xlink="http://www.w3.org/1999/xlink">
<g id="Canvas" fill="none">
<g id="Logo Group">
<path id="Maintenance Tracker App" d="M 7.7 65C 7.23333 65 6.83667 64.86 6.51 64.58C 6.23 64.2533 6.09 63.8567 6.09 63.39L 6.09 17.68C 6.09 17.1667 6.23 16.77 6.51 16.49C 6.83667 16.1633 7.23333 16 7.7 16L 11.2 16C 11.9467 16 12.5533 16.3733 13.02 17.12L 27.79 45.4L 42.7 17.12C 42.7933 16.84 42.98 16.5833 43.26 16.35C 43.5867 16.1167 43.9833 16 44.45 16L 47.88 16C 48.3933 16 48.79 16.1633 49.07 16.49C 49.3967 16.77 49.56 17.1667 49.56 17.68L 49.56 63.39C 49.56 63.8567 49.3967 64.2533 49.07 64.58C 48.7433 64.86 48.3467 65 47.88 65L 44.45 65C 43.9833 65 43.5867 64.86 43.26 64.58C 42.98 64.2533 42.84 63.8567 42.84 63.39L 42.84 28.95L 31.15 51.77C 30.6833 52.75 29.9367 53.24 28.91 53.24L 26.74 53.24C 25.7133 53.24 24.9667 52.75 24.5 51.77L 12.74 28.95L 12.74 63.39C 12.74 63.8567 12.5767 64.2533 12.25 64.58C 11.97 64.86 11.5967 65 11.13 65L 7.7 65ZM 70.9062 65.7C 68.6195 65.7 66.4962 65.2333 64.5362 64.3C 62.5762 63.3667 61.0128 62.1067 59.8462 60.52C 58.7262 58.8867 58.1662 57.09 58.1662 55.13C 58.1662 52.05 59.4262 49.53 61.9462 47.57C 64.5128 45.5633 67.9662 44.2567 72.3062 43.65L 82.7362 42.18L 82.7362 40.15C 82.7362 35.39 80.0062 33.01 74.5462 33.01C 72.4928 33.01 70.8128 33.4533 69.5062 34.34C 68.1995 35.18 67.2195 36.1833 66.5662 37.35C 66.4262 37.77 66.2395 38.0733 66.0062 38.26C 65.8195 38.4467 65.5395 38.54 65.1662 38.54L 62.1562 38.54C 61.7362 38.54 61.3628 38.4 61.0362 38.12C 60.7562 37.7933 60.6162 37.42 60.6162 37C 60.6628 35.88 61.1762 34.62 62.1562 33.22C 63.1828 31.7733 64.7462 30.5367 66.8462 29.51C 68.9462 28.4367 71.5362 27.9 74.6162 27.9C 79.8428 27.9 83.5995 29.1367 85.8862 31.61C 88.1728 34.0367 89.3162 37.07 89.3162 40.71L 89.3162 63.39C 89.3162 63.8567 89.1528 64.2533 88.8262 64.58C 88.5462 64.86 88.1728 65 87.7062 65L 84.4862 65C 84.0195 65 83.6228 64.86 83.2962 64.58C 83.0162 64.2533 82.8762 63.8567 82.8762 63.39L 82.8762 60.38C 81.8495 61.8733 80.3562 63.1333 78.3962 64.16C 76.4362 65.1867 73.9395 65.7 70.9062 65.7ZM 72.3762 60.45C 75.4095 60.45 77.8828 59.47 79.7962 57.51C 81.7562 55.5033 82.7362 52.6333 82.7362 48.9L 82.7362 46.94L 74.6162 48.13C 71.3028 48.5967 68.8062 49.39 67.1262 50.51C 65.4462 51.5833 64.6062 52.96 64.6062 54.64C 64.6062 56.5067 65.3762 57.9533 66.9162 58.98C 68.4562 59.96 70.2762 60.45 72.3762 60.45ZM 100.429 21.81C 99.9626 21.81 99.5659 21.67 99.2392 21.39C 98.9592 21.0633 98.8192 20.6667 98.8192 20.2L 98.8192 16.42C 98.8192 15.9533 98.9592 15.5567 99.2392 15.23C 99.5659 14.9033 99.9626 14.74 100.429 14.74L 104.839 14.74C 105.306 14.74 105.703 14.9033 106.029 15.23C 106.356 15.5567 106.519 15.9533 106.519 16.42L 106.519 20.2C 106.519 20.6667 106.356 21.0633 106.029 21.39C 105.703 21.67 105.306 21.81 104.839 21.81L 100.429 21.81ZM 100.989 65C 100.523 65 100.126 64.86 99.7992 64.58C 99.5192 64.2533 99.3792 63.8567 99.3792 63.39L 99.3792 30.21C 99.3792 29.7433 99.5192 29.37 99.7992 29.09C 100.126 28.7633 100.523 28.6 100.989 28.6L 104.349 28.6C 104.816 28.6 105.189 28.7633 105.469 29.09C 105.796 29.37 105.959 29.7433 105.959 30.21L 105.959 63.39C 105.959 63.8567 105.796 64.2533 105.469 64.58C 105.189 64.86 104.816 65 104.349 65L 100.989 65ZM 117.942 65C 117.476 65 117.079 64.86 116.752 64.58C 116.472 64.2533 116.332 63.8567 116.332 63.39L 116.332 30.21C 116.332 29.7433 116.472 29.37 116.752 29.09C 117.079 28.7633 117.476 28.6 117.942 28.6L 121.232 28.6C 121.699 28.6 122.072 28.7633 122.352 29.09C 122.679 29.37 122.842 29.7433 122.842 30.21L 122.842 33.29C 124.196 31.5633 125.782 30.2333 127.602 29.3C 129.469 28.3667 131.779 27.9 134.532 27.9C 139.012 27.9 142.489 29.3467 144.962 32.24C 147.482 35.0867 148.742 38.89 148.742 43.65L 148.742 63.39C 148.742 63.8567 148.579 64.2533 148.252 64.58C 147.972 64.86 147.599 65 147.132 65L 143.632 65C 143.166 65 142.769 64.86 142.442 64.58C 142.162 64.2533 142.022 63.8567 142.022 63.39L 142.022 44C 142.022 40.6867 141.206 38.12 139.572 36.3C 137.986 34.48 135.676 33.57 132.642 33.57C 129.702 33.57 127.369 34.5033 125.642 36.37C 123.916 38.19 123.052 40.7333 123.052 44L 123.052 63.39C 123.052 63.8567 122.889 64.2533 122.562 64.58C 122.282 64.86 121.909 65 121.442 65L 117.942 65ZM 172.515 65C 165.142 65 161.455 60.8933 161.455 52.68L 161.455 34.2L 155.995 34.2C 155.528 34.2 155.132 34.06 154.805 33.78C 154.525 33.4533 154.385 33.0567 154.385 32.59L 154.385 30.21C 154.385 29.7433 154.525 29.37 154.805 29.09C 155.132 28.7633 155.528 28.6 155.995 28.6L 161.455 28.6L 161.455 16.91C 161.455 16.4433 161.595 16.07 161.875 15.79C 162.202 15.4633 162.598 15.3 163.065 15.3L 166.355 15.3C 166.822 15.3 167.195 15.4633 167.475 15.79C 167.802 16.07 167.965 16.4433 167.965 16.91L 167.965 28.6L 176.645 28.6C 177.112 28.6 177.485 28.7633 177.765 29.09C 178.092 29.37 178.255 29.7433 178.255 30.21L 178.255 32.59C 178.255 33.0567 178.092 33.4533 177.765 33.78C 177.485 34.06 177.112 34.2 176.645 34.2L 167.965 34.2L 167.965 52.19C 167.965 54.5233 168.362 56.2967 169.155 57.51C 169.948 58.6767 171.255 59.26 173.075 59.26L 177.345 59.26C 177.812 59.26 178.185 59.4233 178.465 59.75C 178.792 60.03 178.955 60.4033 178.955 60.87L 178.955 63.39C 178.955 63.8567 178.792 64.2533 178.465 64.58C 178.185 64.86 177.812 65 177.345 65L 172.515 65ZM 200.209 65.7C 195.402 65.7 191.552 64.23 188.659 61.29C 185.812 58.3033 184.249 54.2433 183.969 49.11L 183.899 46.73L 183.969 44.42C 184.295 39.38 185.882 35.3667 188.729 32.38C 191.622 29.3933 195.425 27.9 200.139 27.9C 205.319 27.9 209.332 29.5567 212.179 32.87C 215.025 36.1367 216.449 40.57 216.449 46.17L 216.449 47.36C 216.449 47.8267 216.285 48.2233 215.959 48.55C 215.679 48.83 215.305 48.97 214.839 48.97L 190.619 48.97L 190.619 49.6C 190.759 52.6333 191.669 55.2233 193.349 57.37C 195.075 59.47 197.339 60.52 200.139 60.52C 202.285 60.52 204.035 60.1 205.389 59.26C 206.789 58.3733 207.815 57.4633 208.469 56.53C 208.889 55.97 209.192 55.6433 209.379 55.55C 209.612 55.41 210.009 55.34 210.569 55.34L 213.999 55.34C 214.419 55.34 214.769 55.4567 215.049 55.69C 215.329 55.9233 215.469 56.25 215.469 56.67C 215.469 57.6967 214.815 58.9333 213.509 60.38C 212.249 61.8267 210.452 63.0867 208.119 64.16C 205.832 65.1867 203.195 65.7 200.209 65.7ZM 209.799 44.14L 209.799 43.93C 209.799 40.71 208.912 38.0967 207.139 36.09C 205.412 34.0367 203.079 33.01 200.139 33.01C 197.199 33.01 194.865 34.0367 193.139 36.09C 191.459 38.0967 190.619 40.71 190.619 43.93L 190.619 44.14L 209.799 44.14ZM 226.429 65C 225.962 65 225.565 64.86 225.239 64.58C 224.959 64.2533 224.819 63.8567 224.819 63.39L 224.819 30.21C 224.819 29.7433 224.959 29.37 225.239 29.09C 225.565 28.7633 225.962 28.6 226.429 28.6L 229.719 28.6C 230.185 28.6 230.559 28.7633 230.839 29.09C 231.165 29.37 231.329 29.7433 231.329 30.21L 231.329 33.29C 232.682 31.5633 234.269 30.2333 236.089 29.3C 237.955 28.3667 240.265 27.9 243.019 27.9C 247.499 27.9 250.975 29.3467 253.449 32.24C 255.969 35.0867 257.229 38.89 257.229 43.65L 257.229 63.39C 257.229 63.8567 257.065 64.2533 256.739 64.58C 256.459 64.86 256.085 65 255.619 65L 252.119 65C 251.652 65 251.255 64.86 250.929 64.58C 250.649 64.2533 250.509 63.8567 250.509 63.39L 250.509 44C 250.509 40.6867 249.692 38.12 248.059 36.3C 246.472 34.48 244.162 33.57 241.129 33.57C 238.189 33.57 235.855 34.5033 234.129 36.37C 232.402 38.19 231.539 40.7333 231.539 44L 231.539 63.39C 231.539 63.8567 231.375 64.2533 231.049 64.58C 230.769 64.86 230.395 65 229.929 65L 226.429 65ZM 277.42 65.7C 275.133 65.7 273.01 65.2333 271.05 64.3C 269.09 63.3667 267.527 62.1067 266.36 60.52C 265.24 58.8867 264.68 57.09 264.68 55.13C 264.68 52.05 265.94 49.53 268.46 47.57C 271.027 45.5633 274.48 44.2567 278.82 43.65L 289.25 42.18L 289.25 40.15C 289.25 35.39 286.52 33.01 281.06 33.01C 279.007 33.01 277.327 33.4533 276.02 34.34C 274.713 35.18 273.733 36.1833 273.08 37.35C 272.94 37.77 272.753 38.0733 272.52 38.26C 272.333 38.4467 272.053 38.54 271.68 38.54L 268.67 38.54C 268.25 38.54 267.877 38.4 267.55 38.12C 267.27 37.7933 267.13 37.42 267.13 37C 267.177 35.88 267.69 34.62 268.67 33.22C 269.697 31.7733 271.26 30.5367 273.36 29.51C 275.46 28.4367 278.05 27.9 281.13 27.9C 286.357 27.9 290.113 29.1367 292.4 31.61C 294.687 34.0367 295.83 37.07 295.83 40.71L 295.83 63.39C 295.83 63.8567 295.667 64.2533 295.34 64.58C 295.06 64.86 294.687 65 294.22 65L 291 65C 290.533 65 290.137 64.86 289.81 64.58C 289.53 64.2533 289.39 63.8567 289.39 63.39L 289.39 60.38C 288.363 61.8733 286.87 63.1333 284.91 64.16C 282.95 65.1867 280.453 65.7 277.42 65.7ZM 278.89 60.45C 281.923 60.45 284.397 59.47 286.31 57.51C 288.27 55.5033 289.25 52.6333 289.25 48.9L 289.25 46.94L 281.13 48.13C 277.817 48.5967 275.32 49.39 273.64 50.51C 271.96 51.5833 271.12 52.96 271.12 54.64C 271.12 56.5067 271.89 57.9533 273.43 58.98C 274.97 59.96 276.79 60.45 278.89 60.45ZM 307.503 65C 307.036 65 306.64 64.86 306.313 64.58C 306.033 64.2533 305.893 63.8567 305.893 63.39L 305.893 30.21C 305.893 29.7433 306.033 29.37 306.313 29.09C 306.64 28.7633 307.036 28.6 307.503 28.6L 310.793 28.6C 311.26 28.6 311.633 28.7633 311.913 29.09C 312.24 29.37 312.403 29.7433 312.403 30.21L 312.403 33.29C 313.756 31.5633 315.343 30.2333 317.163 29.3C 319.03 28.3667 321.34 27.9 324.093 27.9C 328.573 27.9 332.05 29.3467 334.523 32.24C 337.043 35.0867 338.303 38.89 338.303 43.65L 338.303 63.39C 338.303 63.8567 338.14 64.2533 337.813 64.58C 337.533 64.86 337.16 65 336.693 65L 333.193 65C 332.726 65 332.33 64.86 332.003 64.58C 331.723 64.2533 331.583 63.8567 331.583 63.39L 331.583 44C 331.583 40.6867 330.766 38.12 329.133 36.3C 327.546 34.48 325.236 33.57 322.203 33.57C 319.263 33.57 316.93 34.5033 315.203 36.37C 313.476 38.19 312.613 40.7333 312.613 44L 312.613 63.39C 312.613 63.8567 312.45 64.2533 312.123 64.58C 311.843 64.86 311.47 65 311.003 65L 307.503 65ZM 363.044 65.7C 358.051 65.7 354.131 64.3 351.284 61.5C 348.484 58.6533 346.991 54.6867 346.804 49.6L 346.734 46.8L 346.804 44C 346.991 38.9133 348.484 34.97 351.284 32.17C 354.131 29.3233 358.051 27.9 363.044 27.9C 366.404 27.9 369.251 28.5067 371.584 29.72C 373.917 30.9333 375.644 32.4267 376.764 34.2C 377.931 35.9733 378.561 37.7467 378.654 39.52C 378.701 39.9867 378.561 40.36 378.234 40.64C 377.907 40.92 377.511 41.06 377.044 41.06L 373.684 41.06C 373.217 41.06 372.867 40.9667 372.634 40.78C 372.401 40.5933 372.167 40.22 371.934 39.66C 371.141 37.42 370.021 35.8333 368.574 34.9C 367.127 33.92 365.307 33.43 363.114 33.43C 360.221 33.43 357.911 34.34 356.184 36.16C 354.504 37.9333 353.594 40.6633 353.454 44.35L 353.384 46.87L 353.454 49.25C 353.594 52.9833 354.504 55.7367 356.184 57.51C 357.864 59.2833 360.174 60.17 363.114 60.17C 365.307 60.17 367.127 59.7033 368.574 58.77C 370.021 57.79 371.141 56.18 371.934 53.94C 372.167 53.38 372.401 53.0067 372.634 52.82C 372.867 52.5867 373.217 52.47 373.684 52.47L 377.044 52.47C 377.511 52.47 377.907 52.6333 378.234 52.96C 378.561 53.24 378.701 53.6133 378.654 54.08C 378.561 55.8067 377.931 57.58 376.764 59.4C 375.644 61.1733 373.917 62.6667 371.584 63.88C 369.297 65.0933 366.451 65.7 363.044 65.7ZM 401.527 65.7C 396.72 65.7 392.87 64.23 389.977 61.29C 387.13 58.3033 385.567 54.2433 385.287 49.11L 385.217 46.73L 385.287 44.42C 385.614 39.38 387.2 35.3667 390.047 32.38C 392.94 29.3933 396.744 27.9 401.457 27.9C 406.637 27.9 410.65 29.5567 413.497 32.87C 416.344 36.1367 417.767 40.57 417.767 46.17L 417.767 47.36C 417.767 47.8267 417.604 48.2233 417.277 48.55C 416.997 48.83 416.624 48.97 416.157 48.97L 391.937 48.97L 391.937 49.6C 392.077 52.6333 392.987 55.2233 394.667 57.37C 396.394 59.47 398.657 60.52 401.457 60.52C 403.604 60.52 405.354 60.1 406.707 59.26C 408.107 58.3733 409.134 57.4633 409.787 56.53C 410.207 55.97 410.51 55.6433 410.697 55.55C 410.93 55.41 411.327 55.34 411.887 55.34L 415.317 55.34C 415.737 55.34 416.087 55.4567 416.367 55.69C 416.647 55.9233 416.787 56.25 416.787 56.67C 416.787 57.6967 416.134 58.9333 414.827 60.38C 413.567 61.8267 411.77 63.0867 409.437 64.16C 407.15 65.1867 404.514 65.7 401.527 65.7ZM 411.117 44.14L 411.117 43.93C 411.117 40.71 410.23 38.0967 408.457 36.09C 406.73 34.0367 404.397 33.01 401.457 33.01C 398.517 33.01 396.184 34.0367 394.457 36.09C 392.777 38.0967 391.937 40.71 391.937 43.93L 391.937 44.14L 411.117 44.14ZM 454.748 65C 454.281 65 453.885 64.86 453.558 64.58C 453.278 64.2533 453.138 63.8567 453.138 63.39L 453.138 22.23L 439.698 22.23C 439.231 22.23 438.835 22.09 438.508 21.81C 438.228 21.4833 438.088 21.0867 438.088 20.62L 438.088 17.68C 438.088 17.2133 438.228 16.8167 438.508 16.49C 438.835 16.1633 439.231 16 439.698 16L 473.438 16C 473.951 16 474.348 16.1633 474.628 16.49C 474.955 16.77 475.118 17.1667 475.118 17.68L 475.118 20.62C 475.118 21.0867 474.955 21.4833 474.628 21.81C 474.301 22.09 473.905 22.23 473.438 22.23L 460.068 22.23L 460.068 63.39C 460.068 63.8567 459.905 64.2533 459.578 64.58C 459.251 64.86 458.855 65 458.388 65L 454.748 65ZM 477.991 65C 477.525 65 477.128 64.86 476.801 64.58C 476.521 64.2533 476.381 63.8567 476.381 63.39L 476.381 30.28C 476.381 29.8133 476.521 29.4167 476.801 29.09C 477.128 28.7633 477.525 28.6 477.991 28.6L 481.211 28.6C 481.678 28.6 482.075 28.7633 482.401 29.09C 482.728 29.4167 482.891 29.8133 482.891 30.28L 482.891 33.36C 484.805 30.1867 488.071 28.6 492.691 28.6L 495.421 28.6C 495.888 28.6 496.261 28.7633 496.541 29.09C 496.868 29.37 497.031 29.7433 497.031 30.21L 497.031 33.08C 497.031 33.5467 496.868 33.92 496.541 34.2C 496.261 34.48 495.888 34.62 495.421 34.62L 491.221 34.62C 488.701 34.62 486.718 35.3667 485.271 36.86C 483.825 38.3067 483.101 40.29 483.101 42.81L 483.101 63.39C 483.101 63.8567 482.938 64.2533 482.611 64.58C 482.285 64.86 481.888 65 481.421 65L 477.991 65ZM 512.576 65.7C 510.289 65.7 508.166 65.2333 506.206 64.3C 504.246 63.3667 502.683 62.1067 501.516 60.52C 500.396 58.8867 499.836 57.09 499.836 55.13C 499.836 52.05 501.096 49.53 503.616 47.57C 506.183 45.5633 509.636 44.2567 513.976 43.65L 524.406 42.18L 524.406 40.15C 524.406 35.39 521.676 33.01 516.216 33.01C 514.163 33.01 512.483 33.4533 511.176 34.34C 509.869 35.18 508.889 36.1833 508.236 37.35C 508.096 37.77 507.909 38.0733 507.676 38.26C 507.489 38.4467 507.209 38.54 506.836 38.54L 503.826 38.54C 503.406 38.54 503.033 38.4 502.706 38.12C 502.426 37.7933 502.286 37.42 502.286 37C 502.333 35.88 502.846 34.62 503.826 33.22C 504.853 31.7733 506.416 30.5367 508.516 29.51C 510.616 28.4367 513.206 27.9 516.286 27.9C 521.513 27.9 525.269 29.1367 527.556 31.61C 529.843 34.0367 530.986 37.07 530.986 40.71L 530.986 63.39C 530.986 63.8567 530.823 64.2533 530.496 64.58C 530.216 64.86 529.843 65 529.376 65L 526.156 65C 525.689 65 525.293 64.86 524.966 64.58C 524.686 64.2533 524.546 63.8567 524.546 63.39L 524.546 60.38C 523.519 61.8733 522.026 63.1333 520.066 64.16C 518.106 65.1867 515.609 65.7 512.576 65.7ZM 514.046 60.45C 517.079 60.45 519.553 59.47 521.466 57.51C 523.426 55.5033 524.406 52.6333 524.406 48.9L 524.406 46.94L 516.286 48.13C 512.973 48.5967 510.476 49.39 508.796 50.51C 507.116 51.5833 506.276 52.96 506.276 54.64C 506.276 56.5067 507.046 57.9533 508.586 58.98C 510.126 59.96 511.946 60.45 514.046 60.45ZM 555.749 65.7C 550.756 65.7 546.836 64.3 543.989 61.5C 541.189 58.6533 539.696 54.6867 539.509 49.6L 539.439 46.8L 539.509 44C 539.696 38.9133 541.189 34.97 543.989 32.17C 546.836 29.3233 550.756 27.9 555.749 27.9C 559.109 27.9 561.956 28.5067 564.289 29.72C 566.622 30.9333 568.349 32.4267 569.469 34.2C 570.636 35.9733 571.266 37.7467 571.359 39.52C 571.406 39.9867 571.266 40.36 570.939 40.64C 570.612 40.92 570.216 41.06 569.749 41.06L 566.389 41.06C 565.922 41.06 565.572 40.9667 565.339 40.78C 565.106 40.5933 564.872 40.22 564.639 39.66C 563.846 37.42 562.726 35.8333 561.279 34.9C 559.832 33.92 558.012 33.43 555.819 33.43C 552.926 33.43 550.616 34.34 548.889 36.16C 547.209 37.9333 546.299 40.6633 546.159 44.35L 546.089 46.87L 546.159 49.25C 546.299 52.9833 547.209 55.7367 548.889 57.51C 550.569 59.2833 552.879 60.17 555.819 60.17C 558.012 60.17 559.832 59.7033 561.279 58.77C 562.726 57.79 563.846 56.18 564.639 53.94C 564.872 53.38 565.106 53.0067 565.339 52.82C 565.572 52.5867 565.922 52.47 566.389 52.47L 569.749 52.47C 570.216 52.47 570.612 52.6333 570.939 52.96C 571.266 53.24 571.406 53.6133 571.359 54.08C 571.266 55.8067 570.636 57.58 569.469 59.4C 568.349 61.1733 566.622 62.6667 564.289 63.88C 562.002 65.0933 559.156 65.7 555.749 65.7ZM 581.352 65C 580.886 65 580.489 64.86 580.162 64.58C 579.882 64.2533 579.742 63.8567 579.742 63.39L 579.742 16.91C 579.742 16.4433 579.882 16.07 580.162 15.79C 580.489 15.4633 580.886 15.3 581.352 15.3L 584.642 15.3C 585.109 15.3 585.482 15.4633 585.762 15.79C 586.089 16.07 586.252 16.4433 586.252 16.91L 586.252 41.27L 600.042 29.79C 600.182 29.6967 600.416 29.51 600.742 29.23C 601.069 28.9967 601.372 28.8333 601.652 28.74C 601.979 28.6467 602.376 28.6 602.842 28.6L 606.552 28.6C 606.972 28.6 607.322 28.74 607.602 29.02C 607.882 29.3 608.022 29.65 608.022 30.07C 608.022 30.5833 607.742 31.0267 607.182 31.4L 591.012 44.84L 608.932 62.27C 609.492 62.7367 609.772 63.1567 609.772 63.53C 609.772 63.95 609.632 64.3 609.352 64.58C 609.072 64.86 608.722 65 608.302 65L 604.662 65C 603.962 65 603.449 64.93 603.122 64.79C 602.842 64.65 602.422 64.3233 601.862 63.81L 586.252 48.9L 586.252 63.39C 586.252 63.8567 586.089 64.2533 585.762 64.58C 585.482 64.86 585.109 65 584.642 65L 581.352 65ZM 628.617 65.7C 623.81 65.7 619.96 64.23 617.067 61.29C 614.22 58.3033 612.657 54.2433 612.377 49.11L 612.307 46.73L 612.377 44.42C 612.704 39.38 614.29 35.3667 617.137 32.38C 620.03 29.3933 623.834 27.9 628.547 27.9C 633.727 27.9 637.74 29.5567 640.587 32.87C 643.434 36.1367 644.857 40.57 644.857 46.17L 644.857 47.36C 644.857 47.8267 644.694 48.2233 644.367 48.55C 644.087 48.83 643.714 48.97 643.247 48.97L 619.027 48.97L 619.027 49.6C 619.167 52.6333 620.077 55.2233 621.757 57.37C 623.484 59.47 625.747 60.52 628.547 60.52C 630.694 60.52 632.444 60.1 633.797 59.26C 635.197 58.3733 636.224 57.4633 636.877 56.53C 637.297 55.97 637.6 55.6433 637.787 55.55C 638.02 55.41 638.417 55.34 638.977 55.34L 642.407 55.34C 642.827 55.34 643.177 55.4567 643.457 55.69C 643.737 55.9233 643.877 56.25 643.877 56.67C 643.877 57.6967 643.224 58.9333 641.917 60.38C 640.657 61.8267 638.86 63.0867 636.527 64.16C 634.24 65.1867 631.604 65.7 628.617 65.7ZM 638.207 44.14L 638.207 43.93C 638.207 40.71 637.32 38.0967 635.547 36.09C 633.82 34.0367 631.487 33.01 628.547 33.01C 625.607 33.01 623.274 34.0367 621.547 36.09C 619.867 38.0967 619.027 40.71 619.027 43.93L 619.027 44.14L 638.207 44.14ZM 654.837 65C 654.37 65 653.974 64.86 653.647 64.58C 653.367 64.2533 653.227 63.8567 653.227 63.39L 653.227 30.28C 653.227 29.8133 653.367 29.4167 653.647 29.09C 653.974 28.7633 654.37 28.6 654.837 28.6L 658.057 28.6C 658.524 28.6 658.92 28.7633 659.247 29.09C 659.574 29.4167 659.737 29.8133 659.737 30.28L 659.737 33.36C 661.65 30.1867 664.917 28.6 669.537 28.6L 672.267 28.6C 672.734 28.6 673.107 28.7633 673.387 29.09C 673.714 29.37 673.877 29.7433 673.877 30.21L 673.877 33.08C 673.877 33.5467 673.714 33.92 673.387 34.2C 673.107 34.48 672.734 34.62 672.267 34.62L 668.067 34.62C 665.547 34.62 663.564 35.3667 662.117 36.86C 660.67 38.3067 659.947 40.29 659.947 42.81L 659.947 63.39C 659.947 63.8567 659.784 64.2533 659.457 64.58C 659.13 64.86 658.734 65 658.267 65L 654.837 65ZM 691.111 65C 690.737 65 690.411 64.86 690.131 64.58C 689.851 64.3 689.711 63.9733 689.711 63.6C 689.711 63.2267 689.734 62.97 689.781 62.83L 707.141 17.54C 707.514 16.5133 708.261 16 709.381 16L 714.141 16C 715.261 16 716.007 16.5133 716.381 17.54L 733.671 62.83L 733.811 63.6C 733.811 63.9733 733.671 64.3 733.391 64.58C 733.111 64.86 732.784 65 732.411 65L 728.841 65C 728.327 65 727.931 64.8833 727.651 64.65C 727.371 64.37 727.184 64.09 727.091 63.81L 723.241 53.87L 700.281 53.87L 696.431 63.81C 696.337 64.09 696.127 64.37 695.801 64.65C 695.521 64.8833 695.147 65 694.681 65L 691.111 65ZM 721.211 47.85L 711.761 23L 702.311 47.85L 721.211 47.85ZM 742.065 78.3C 741.598 78.3 741.202 78.1367 740.875 77.81C 740.595 77.53 740.455 77.1567 740.455 76.69L 740.455 30.21C 740.455 29.7433 740.595 29.37 740.875 29.09C 741.202 28.7633 741.598 28.6 742.065 28.6L 745.285 28.6C 745.752 28.6 746.125 28.7633 746.405 29.09C 746.732 29.37 746.895 29.7433 746.895 30.21L 746.895 33.29C 749.508 29.6967 753.335 27.9 758.375 27.9C 763.275 27.9 766.938 29.44 769.365 32.52C 771.838 35.6 773.168 39.5667 773.355 44.42C 773.402 44.9333 773.425 45.7267 773.425 46.8C 773.425 47.8733 773.402 48.6667 773.355 49.18C 773.168 53.9867 771.838 57.9533 769.365 61.08C 766.892 64.16 763.228 65.7 758.375 65.7C 753.522 65.7 749.742 63.95 747.035 60.45L 747.035 76.69C 747.035 77.1567 746.895 77.53 746.615 77.81C 746.335 78.1367 745.962 78.3 745.495 78.3L 742.065 78.3ZM 756.905 60.03C 760.218 60.03 762.622 59.0033 764.115 56.95C 765.655 54.8967 766.495 52.19 766.635 48.83C 766.682 48.3633 766.705 47.6867 766.705 46.8C 766.705 37.98 763.438 33.57 756.905 33.57C 753.685 33.57 751.258 34.6433 749.625 36.79C 748.038 38.89 747.175 41.41 747.035 44.35L 746.965 47.01L 747.035 49.74C 747.128 52.4933 748.015 54.8967 749.695 56.95C 751.375 59.0033 753.778 60.03 756.905 60.03ZM 783.764 78.3C 783.298 78.3 782.901 78.1367 782.574 77.81C 782.294 77.53 782.154 77.1567 782.154 76.69L 782.154 30.21C 782.154 29.7433 782.294 29.37 782.574 29.09C 782.901 28.7633 783.298 28.6 783.764 28.6L 786.984 28.6C 787.451 28.6 787.824 28.7633 788.104 29.09C 788.431 29.37 788.594 29.7433 788.594 30.21L 788.594 33.29C 791.208 29.6967 795.034 27.9 800.074 27.9C 804.974 27.9 808.638 29.44 811.064 32.52C 813.538 35.6 814.868 39.5667 815.054 44.42C 815.101 44.9333 815.124 45.7267 815.124 46.8C 815.124 47.8733 815.101 48.6667 815.054 49.18C 814.868 53.9867 813.538 57.9533 811.064 61.08C 808.591 64.16 804.928 65.7 800.074 65.7C 795.221 65.7 791.441 63.95 788.734 60.45L 788.734 76.69C 788.734 77.1567 788.594 77.53 788.314 77.81C 788.034 78.1367 787.661 78.3 787.194 78.3L 783.764 78.3ZM 798.604 60.03C 801.918 60.03 804.321 59.0033 805.814 56.95C 807.354 54.8967 808.194 52.19 808.334 48.83C 808.381 48.3633 808.404 47.6867 808.404 46.8C 808.404 37.98 805.138 33.57 798.604 33.57C 795.384 33.57 792.958 34.6433 791.324 36.79C 789.738 38.89 788.874 41.41 788.734 44.35L 788.664 47.01L 788.734 49.74C 788.828 52.4933 789.714 54.8967 791.394 56.95C 793.074 59.0033 795.478 60.03 798.604 60.03Z" transform="translate(164 26)" fill="white"/>
<g id="two-gears-svgrepo-com">
<g id="Group">
<path id="Vector" d="M 52.557 82.7943C 37.7619 81.7825 26.0287 69.4713 26.0287 54.4445C 26.0287 38.7564 38.8071 25.9946 54.5153 25.9946C 67.1255 25.9946 77.8336 34.2288 81.5719 45.5885C 81.7939 45.5791 82.0064 45.5251 82.2309 45.5251C 83.9398 45.5251 85.6025 45.8372 87.1505 46.4373C 88.5739 43.2331 91.2179 40.7071 94.4744 39.3781C 93.8374 37.6934 93.1243 36.0476 92.287 34.4722L 98.7934 27.9742C 99.6311 27.1379 100.102 26.0015 100.102 24.8167C 100.102 23.6319 99.6311 22.4955 98.7934 21.6592L 87.3357 10.2214C 85.5903 8.47792 82.7582 8.47792 81.0122 10.2214L 74.506 16.7194C 72.1525 15.4734 69.6745 14.4299 67.084 13.6351L 67.084 4.46443C 67.084 1.99937 65.082 1.10206e-07 62.6137 1.10206e-07L 46.4169 1.10206e-07C 43.9489 1.10206e-07 41.947 1.99937 41.947 4.46443L 41.947 13.6348C 39.3564 14.4295 36.8784 15.4734 34.5224 16.7191L 28.0206 10.2261C 26.2749 8.48263 23.4432 8.48263 21.6975 10.2261L 10.2416 21.6639C 9.40456 22.5002 8.93291 23.6366 8.93291 24.8214C 8.93291 26.0065 9.40456 27.1427 10.2416 27.9789L 16.7433 34.4725C 15.4957 36.8255 14.4508 39.2978 13.6553 41.885L 4.46992 41.885C 2.00197 41.8847 0 43.884 0 46.3494L 0 62.5296C 0 64.995 2.00197 66.9944 4.46992 66.9944L 13.6525 66.9944C 14.448 69.5809 15.4932 72.0557 16.7405 74.4087L 10.2368 80.9045C 8.49083 82.6476 8.49083 85.476 10.2368 87.2195L 21.6921 98.6605C 23.4375 100.404 26.2696 100.404 28.0153 98.6605L 34.5167 92.1672C 36.8727 93.4154 39.3532 94.4611 41.9463 95.2562L 41.9463 104.427C 41.9463 106.892 43.9483 108.891 46.4163 108.891L 56.8874 108.891C 54.0333 106.4 52.2171 102.749 52.2171 98.6749C 52.2181 96.0733 52.0125 85.3055 52.557 82.7943Z" fill="white"/>
<path id="Vector_2" d="M 39.0898 16.0097C 39.6394 15.4608 40.2447 14.9951 40.8647 14.5542C 38.1377 6.14192 30.3081 -8.43316e-07 20.9862 -8.43316e-07C 9.41399 -8.43316e-07 1.01713e-06 9.40208 1.01713e-06 20.9596C 1.01713e-06 33.0827 10.5176 43.3844 23.7208 41.6435C 24.6534 40.8851 25.6762 40.2339 26.7899 39.7415C 22.8351 29.5198 31.1526 23.9384 39.0898 16.0097Z" transform="translate(33.5284 33.4852)" fill="#F2994A"/>
<path id="Vector_3" d="M 17.4149 3.83326e-07C 7.8126 3.83326e-07 7.67648e-08 7.80246 7.67648e-08 17.3923C 7.67648e-08 26.9822 7.8126 34.7847 17.4149 34.7847C 27.0195 34.7847 34.8324 26.9822 34.8324 17.3923C 34.8324 7.80246 27.0195 3.83326e-07 17.4149 3.83326e-07Z" transform="translate(88.6906 74.7723)" fill="#225555"/>
<path id="Vector_4" d="M 87.7799 37.3131C 87.7799 35.3282 86.1688 33.7192 84.1813 33.7192L 76.7888 33.7192C 76.1467 31.6369 75.3044 29.6423 74.2982 27.7503L 79.5353 22.52C 80.2116 21.8442 80.5899 20.9301 80.5899 19.9767C 80.5899 19.0233 80.212 18.1092 79.5353 17.4335L 70.3141 8.22419C 69.6107 7.52456 68.6907 7.17348 67.7675 7.17348C 66.8472 7.17348 65.9265 7.52456 65.2235 8.22419L 59.9819 13.4589C 58.0869 12.4547 56.0925 11.6159 54.0072 10.9772L 54.0072 3.59428C 54.0072 1.60935 52.396 3.0666e-07 50.4085 3.0666e-07L 37.3689 3.0666e-07C 35.3814 3.0666e-07 33.7703 1.60935 33.7703 3.59428L 33.7703 10.9772C 31.6853 11.6159 29.6883 12.4547 27.7911 13.4589L 22.5565 8.23173C 21.8534 7.52895 20.9328 7.17819 20.0099 7.17819C 19.0893 7.17819 18.1689 7.52926 17.4659 8.22921L 8.24463 17.4385C 7.56798 18.1143 7.18972 19.0284 7.18972 19.9817C 7.18972 20.9351 7.56829 21.8492 8.24463 22.525L 13.4792 27.7528C 12.4731 29.6448 11.6332 31.6369 10.9912 33.7192L 3.59863 33.7192C 1.61113 33.7192 2.22618e-06 35.3282 2.22618e-06 37.3131L 2.22618e-06 50.3409C 2.22618e-06 52.3258 1.61113 53.9349 3.59863 53.9349L 10.9886 53.9349C 11.6307 56.0171 12.4705 58.0118 13.4767 59.9038L 8.2396 65.1341C 6.83567 66.5362 6.83567 68.8135 8.2396 70.2181L 17.4608 79.4274C 18.1372 80.1031 19.0528 80.4806 20.0074 80.4806C 20.962 80.4806 21.8773 80.1031 22.554 79.4274L 27.786 74.202C 29.6855 75.2066 31.6828 76.0479 33.7703 76.6869L 33.7703 84.0723C 33.7703 86.0566 35.3814 87.6663 37.3689 87.6663L 50.4085 87.6663C 52.396 87.6663 54.0072 86.0569 54.0072 84.0723L 54.0072 76.6869C 56.0947 76.0479 58.0919 75.2069 59.9889 74.202L 65.2285 79.4324C 65.9316 80.1345 66.8522 80.4831 67.7725 80.4831C 68.6951 80.4831 69.6157 80.1345 70.3185 79.4324L 79.5375 70.2253C 80.2135 69.5502 80.5921 68.6357 80.5921 67.6821C 80.5921 66.7287 80.2135 65.8146 79.5375 65.1394L 74.3004 59.9091C 75.3062 58.0146 76.1489 56.02 76.7885 53.9352L 84.181 53.9352C 85.1356 53.9352 86.0534 53.5571 86.7275 52.882C 87.4036 52.2087 87.7821 51.2921 87.7821 50.3387L 87.7799 37.3131ZM 43.8876 66.2168C 31.529 66.2168 21.4726 56.1738 21.4726 43.8309C 21.4726 31.4884 31.5287 21.4451 43.8876 21.4451C 56.2487 21.4451 66.3051 31.4881 66.3051 43.8309C 66.3051 56.1735 56.2487 66.2168 43.8876 66.2168Z" transform="translate(62.2178 48.3337)" fill="white"/>
</g>
</g>
</g>
</g>
</svg>
