<svg width="52" height="52" viewBox="0 0 52 52" version="1.1" xmlns="http://www.w3.org/2000/svg" xmlns:xlink="http://www.w3.org/1999/xlink">
<g id="Canvas" fill="none">
<g id="Black_pencil" opacity="0.25">
<g id="layer1">
<g id="g3765">
<g id="rect2990" transform="translate(2 0)">
<mask id="path-1-inside-1" fill="white">
<path d="M 2.18034 37.1422L 39.3236 1.51431e-08L 50 10.6764L 12.8578 47.8197L 1.7566e-07 50L 2.18034 37.1422Z"/>
</mask>
<path d="M 2.18034 37.1422L 39.3236 1.51431e-08L 50 10.6764L 12.8578 47.8197L 1.7566e-07 50L 2.18034 37.1422Z" fill="#C4C4C4" fill-opacity="0.09"/>
<g mask="url(#path-1-inside-1)">
<path d="M 2.18034 37.1422L 0.0590505 35.0209L -0.617478 35.6974L -0.777433 36.6407L 2.18034 37.1422ZM 39.3236 1.51431e-08L 41.4449 -2.12132L 39.3236 -4.24261L 37.2023 -2.12135L 39.3236 1.51431e-08ZM 50 10.6764L 52.1213 12.7977L 54.2426 10.6764L 52.1213 8.55511L 50 10.6764ZM 12.8578 47.8197L 13.3593 50.7774L 14.3026 50.6175L 14.9791 49.9409L 12.8578 47.8197ZM 1.7566e-07 50L -2.95778 49.4984L -3.66418 53.6642L 0.501561 52.9578L 1.7566e-07 50ZM 4.30163 39.2636L 41.4449 2.12135L 37.2023 -2.12135L 0.0590505 35.0209L 4.30163 39.2636ZM 37.2022 2.12132L 47.8787 12.7978L 52.1213 8.55511L 41.4449 -2.12132L 37.2022 2.12132ZM 47.8787 8.55514L 10.7364 45.6984L 14.9791 49.9409L 52.1213 12.7977L 47.8787 8.55514ZM 12.3562 44.8619L -0.501561 47.0422L 0.501561 52.9578L 13.3593 50.7774L 12.3562 44.8619ZM 2.95778 50.5016L 5.13812 37.6438L -0.777433 36.6407L -2.95778 49.4984L 2.95778 50.5016Z" fill="#BDBDBD"/>
</g>
</g>
<g id="path3771" transform="translate(4.23047 36.6917)">
<mask id="path-3-inside-2" fill="white">
<path d="M 2.42289e-08 -2.4229e-07L 10.9771 10.9771L 2.42289e-08 -2.4229e-07Z"/>
</mask>
<path d="M 2.42289e-08 -2.4229e-07L 10.9771 10.9771L 2.42289e-08 -2.4229e-07Z" fill="#C4C4C4" fill-opacity="0.09"/>
<g mask="url(#path-3-inside-2)">
<path d="M -2.12132 2.12132L 8.85581 13.0985L 13.0985 8.85581L 2.12132 -2.12132L -2.12132 2.12132Z" fill="#BDBDBD"/>
</g>
</g>
<g id="path3777" transform="translate(9.61035 5.9823)">
<mask id="path-5-inside-3" fill="white">
<path d="M 36.391 2.72576e-07L -1.21145e-07 36.39L 36.391 2.72576e-07Z"/>
</mask>
<path d="M 36.391 2.72576e-07L -1.21145e-07 36.39L 36.391 2.72576e-07Z" fill="#C4C4C4" fill-opacity="0.09"/>
<g mask="url(#path-5-inside-3)">
<path d="M 34.2697 -2.12135L -2.12129 34.2686L 2.12129 38.5113L 38.5123 2.12135L 34.2697 -2.12135Z" fill="#BDBDBD"/>
</g>
</g>
<g id="path3763" transform="translate(2.60742 45.5688)">
<mask id="path-7-inside-4" fill="white">
<path d="M 1.21145e-08 9.69158e-07L 4.06643 3.92462L 1.21145e-08 9.69158e-07Z"/>
</mask>
<path d="M 1.21145e-08 9.69158e-07L 4.06643 3.92462L 1.21145e-08 9.69158e-07Z" fill="#C4C4C4" fill-opacity="0.09"/>
<g mask="url(#path-7-inside-4)">
<path d="M -2.08335 2.15863L 1.98309 6.08325L 6.14978 1.76599L 2.08335 -2.15863L -2.08335 2.15863Z" fill="#BDBDBD"/>
</g>
</g>
</g>
</g>
</g>
</g>
</svg>
