<svg width="1029" height="1213" viewBox="0 0 1029 1213" version="1.1" xmlns="http://www.w3.org/2000/svg" xmlns:xlink="http://www.w3.org/1999/xlink">
<g id="Canvas" fill="none">
<g id="Background">
<mask id="mask0" mask-type="alpha" maskUnits="userSpaceOnUse" x="-2004" y="-301" width="3033" height="1514">
<rect id="Rectangle" width="3033" height="1514" transform="translate(-2004 -301)" fill="#293032"/>
</mask>
<g mask="url(#mask0)">
<g id="Group">
<path id="Vector" d="M 346.704 255.433C 390.098 229.205 412.996 179.103 404.389 129.16L 395.14 75.495C 387.636 31.8715 349.786 0.00229308 305.486 0.00229308C 292.193 0.00229308 281.413 10.7752 281.413 24.0567L 281.413 134.75C 281.413 154.852 265.107 171.144 244.986 171.144L 161.195 171.144C 141.075 171.144 124.773 154.852 124.773 134.75L 124.773 24.0544C 124.773 10.7729 113.994 1.02509e-10 100.696 1.02509e-10C 56.4116 1.02509e-10 18.5438 31.8715 11.0437 75.4927L 1.79244 129.158C -6.81389 179.101 16.0835 229.205 59.4778 255.431L 106.81 284.044L 106.81 809.899L 59.4778 838.512C 16.0835 864.74 -6.81389 914.844 1.79244 964.787L 11.0437 1018.45C 18.5438 1062.08 56.3932 1093.94 100.696 1093.94C 113.991 1093.94 124.773 1083.17 124.773 1069.89L 124.773 959.195C 124.773 939.091 141.077 922.799 161.195 922.799L 244.986 922.799C 265.107 922.799 281.413 939.091 281.413 959.195L 281.413 1069.89C 281.413 1083.17 292.193 1093.94 305.486 1093.94C 349.789 1093.94 387.638 1062.08 395.14 1018.45L 404.389 964.787C 412.996 914.844 390.098 864.743 346.704 838.512L 299.372 809.899L 299.372 284.046L 346.704 255.433Z" transform="matrix(0.948773 -0.315957 0.315957 0.948773 -32.8359 238.617)" fill="#222729"/>
<path id="Vector_2" d="M 303.122 535.897L 206.306 535.897L 206.306 200.433C 223.145 193.988 235.207 177.927 235.207 158.842L 235.207 0L 104.428 0L 104.428 158.839C 104.428 177.927 116.472 193.969 133.315 200.431L 133.315 535.897L 36.4954 535.897C 16.3428 535.897 -2.24123e-05 552.226 -2.24123e-05 572.361C -2.24123e-05 592.502 16.3428 608.826 36.4954 608.826L 44.567 608.826L 44.567 1010.46C 44.567 1056.59 82.0079 1094 128.179 1094L 219.509 1094C 265.681 1094 303.122 1056.59 303.122 1010.46L 303.122 608.826C 323.274 608.826 339.617 592.502 339.617 572.361C 339.619 552.226 323.276 535.897 303.122 535.897ZM 128.377 954.514C 128.377 964.592 120.215 972.747 110.129 972.747C 100.042 972.747 91.8811 964.592 91.8811 954.514L 91.8811 700.774C 91.8811 690.696 100.042 682.542 110.129 682.542C 120.215 682.542 128.377 690.696 128.377 700.774L 128.377 954.514ZM 188.059 954.514C 188.059 964.592 179.895 972.747 169.811 972.747C 159.724 972.747 151.563 964.592 151.563 954.514L 151.563 795.159L 151.563 700.774C 151.563 690.696 159.724 682.542 169.811 682.542C 179.895 682.542 188.059 690.696 188.059 700.774L 188.059 795.159L 188.059 954.514ZM 247.736 954.514C 247.736 964.592 239.575 972.747 229.488 972.747C 219.402 972.747 211.24 964.592 211.24 954.514L 211.24 700.774C 211.24 690.696 219.402 682.542 229.488 682.542C 239.575 682.542 247.736 690.696 247.736 700.774L 247.736 954.514Z" transform="matrix(0.948773 -0.315957 0.315957 0.948773 458.975 74.7798)" fill="#222729"/>
</g>
</g>
</g>
</g>
</svg>
