<svg width="326" height="272" viewBox="0 0 326 272" version="1.1" xmlns="http://www.w3.org/2000/svg" xmlns:xlink="http://www.w3.org/1999/xlink">
<g id="Canvas" fill="none">
<g id="wrench-and-hammer-svgrepo-com">
<g id="Group">
<path id="Vector" d="M 44.2332 2.48097e-06L -7.30253e-06 44.0762L 57.7571 101.629C 69.9717 113.802 89.7607 113.802 101.975 101.629C 114.194 89.4524 114.199 69.736 101.985 57.5477L 44.2332 2.48097e-06Z" transform="translate(149.447 161.241) scale(-1 1)" fill="#225555"/>
<path id="Vector_2" d="M 85.5312 111.075L 119.978 145.404L 164.211 101.323L 129.77 66.9986L 171.422 25.484C 174.843 22.0756 174.843 16.5414 171.422 13.1269L 163.716 5.45255C 159.482 1.23394 153.471 -0.711748 147.559 0.235355L 80.9758 10.8716C 77.0915 11.4922 73.5069 13.3173 70.7258 16.0834L 67.7802 19.0243L 65.3738 16.62C 61.9537 13.2116 56.4004 13.2116 52.9797 16.62L 34.9752 34.5641C 31.5497 37.9724 31.5497 43.5067 34.9752 46.9157L 37.3817 49.3194L 2.56505 84.0112C -0.855018 87.4196 -0.855018 92.9538 2.56505 96.3629L 45.2367 138.888C 48.6568 142.297 54.2101 142.297 57.6308 138.888L 85.5312 111.075Z" transform="translate(326 3.53683) scale(-1 1)" fill="#225555"/>
<path id="Vector_3" d="M 264.457 50.626C 263.247 49.4214 261.665 48.8158 260.086 48.8158C 258.508 48.8158 256.925 49.4214 255.716 50.626L 231.166 75.0758C 229.012 77.2329 226.182 78.3053 223.359 78.3053C 220.535 78.3053 217.706 77.2322 215.551 75.0758L 197.589 57.1696C 195.504 55.1183 194.354 52.3142 194.354 49.3943C 194.354 46.4744 195.504 43.6771 197.584 41.6095L 222.135 17.1488C 224.547 14.7444 224.547 10.8409 222.135 8.44195C 216.535 2.86705 209.129 -8.26989e-07 201.671 -8.26989e-07C 195.869 -8.26989e-07 190.037 1.73568 185.001 5.28088L 171.662 14.6706C 158.983 23.5868 151.113 37.8048 150.28 53.2498L 148.701 82.6554L 8.5512 222.334C -2.8504 233.702 -2.8504 252.108 8.5512 263.471C 14.2568 269.153 21.7257 271.998 29.1953 271.998C 36.6643 271.998 44.1278 269.157 49.8334 263.476L 189.999 123.798L 219.494 122.225C 234.986 121.398 249.248 113.556 258.201 100.92L 267.628 87.6226C 275.752 76.1645 274.406 60.5414 264.457 50.626ZM 30.642 253.66C 23.8059 253.66 18.2628 248.137 18.2628 241.324C 18.2628 234.512 23.8052 228.988 30.642 228.988C 37.4773 228.988 43.0197 234.512 43.0197 241.324C 43.0197 248.137 37.4773 253.66 30.642 253.66Z" transform="translate(272.926 0) scale(-1 1)" fill="#F2994A"/>
</g>
</g>
</g>
</svg>
